<svg preserveAspectRatio="none" width="100%" height="100%" overflow="visible" style="display: block;" viewBox="0 0 140 140" fill="none" xmlns="http://www.w3.org/2000/svg">
<g id="location-crosshairs-svgrepo-com 1">
<path id="Vector" d="M110.833 70C110.833 92.5517 92.5517 110.833 70 110.833M110.833 70C110.833 47.4484 92.5517 29.1667 70 29.1667M110.833 70H122.5M70 110.833C47.4484 110.833 29.1667 92.5517 29.1667 70M70 110.833V122.5M70 29.1667C47.4484 29.1667 29.1667 47.4484 29.1667 70M70 29.1667V17.5M29.1667 70H17.5M87.5 70C87.5 79.6653 79.6653 87.5 70 87.5C60.3348 87.5 52.5 79.6653 52.5 70C52.5 60.3348 60.3348 52.5 70 52.5C79.6653 52.5 87.5 60.3348 87.5 70Z" stroke="var(--stroke-0, white)" stroke-width="11.6667" stroke-linecap="round" stroke-linejoin="round"/>
</g>
</svg>
