<svg preserveAspectRatio="none" width="100%" height="100%" overflow="visible" style="display: block;" viewBox="0 0 140 140" fill="none" xmlns="http://www.w3.org/2000/svg">
<g id="Frame">
<path id="Vector" d="M59.9703 80.0297C60.3771 80.436 60.6998 80.9185 60.9199 81.4496C61.1401 81.9808 61.2534 82.5501 61.2534 83.125C61.2534 83.6999 61.1401 84.2692 60.9199 84.8004C60.6998 85.3315 60.3771 85.814 59.9703 86.2203L45.5602 100.625L55.5953 110.655C56.2079 111.267 56.6251 112.046 56.7942 112.896C56.9633 113.745 56.8766 114.625 56.5452 115.425C56.2138 116.225 55.6525 116.908 54.9324 117.389C54.2123 117.869 53.3658 118.126 52.5 118.125H26.25C25.0897 118.125 23.9769 117.664 23.1564 116.844C22.3359 116.023 21.875 114.91 21.875 113.75V87.5C21.8743 86.6342 22.1305 85.7877 22.6112 85.0676C23.0919 84.3475 23.7754 83.7862 24.5753 83.4548C25.3751 83.1234 26.2553 83.0367 27.1045 83.2058C27.9536 83.3749 28.7334 83.7921 29.3453 84.4047L39.375 94.4398L53.7797 80.0297C54.186 79.6229 54.6685 79.3002 55.1996 79.08C55.7308 78.8599 56.3001 78.7466 56.875 78.7466C57.4499 78.7466 58.0192 78.8599 58.5504 79.08C59.0815 79.3002 59.564 79.6229 59.9703 80.0297ZM45.5602 39.375L55.5953 29.3453C56.2079 28.7334 56.6251 27.9536 56.7942 27.1045C56.9633 26.2553 56.8766 25.3751 56.5452 24.5753C56.2138 23.7754 55.6525 23.0919 54.9324 22.6112C54.2123 22.1305 53.3658 21.8743 52.5 21.875H26.25C25.0897 21.875 23.9769 22.3359 23.1564 23.1564C22.3359 23.9769 21.875 25.0897 21.875 26.25V52.5C21.8743 53.3658 22.1305 54.2123 22.6112 54.9324C23.0919 55.6525 23.7754 56.2138 24.5753 56.5452C25.3751 56.8766 26.2553 56.9633 27.1045 56.7942C27.9536 56.6251 28.7334 56.2079 29.3453 55.5953L39.375 45.5602L53.7797 59.9703C54.6006 60.7912 55.714 61.2524 56.875 61.2524C58.036 61.2524 59.1494 60.7912 59.9703 59.9703C60.7912 59.1494 61.2524 58.036 61.2524 56.875C61.2524 55.714 60.7912 54.6006 59.9703 53.7797L45.5602 39.375ZM113.75 21.875H87.5C86.6342 21.8743 85.7877 22.1305 85.0676 22.6112C84.3475 23.0919 83.7862 23.7754 83.4548 24.5753C83.1234 25.3751 83.0367 26.2553 83.2058 27.1045C83.3749 27.9536 83.7921 28.7334 84.4047 29.3453L94.4398 39.375L80.0297 53.7797C79.2088 54.6006 78.7476 55.714 78.7476 56.875C78.7476 58.036 79.2088 59.1494 80.0297 59.9703C80.8506 60.7912 81.964 61.2524 83.125 61.2524C84.286 61.2524 85.3994 60.7912 86.2203 59.9703L100.625 45.5602L110.655 55.5953C111.267 56.2079 112.046 56.6251 112.896 56.7942C113.745 56.9633 114.625 56.8766 115.425 56.5452C116.225 56.2138 116.908 55.6525 117.389 54.9324C117.869 54.2123 118.126 53.3658 118.125 52.5V26.25C118.125 25.0897 117.664 23.9769 116.844 23.1564C116.023 22.3359 114.91 21.875 113.75 21.875ZM115.423 83.4586C114.624 83.127 113.744 83.0399 112.896 83.2083C112.047 83.3767 111.267 83.793 110.655 84.4047L100.625 94.4398L86.2203 80.0297C85.3994 79.2088 84.286 78.7476 83.125 78.7476C81.964 78.7476 80.8506 79.2088 80.0297 80.0297C79.2088 80.8506 78.7476 81.964 78.7476 83.125C78.7476 84.286 79.2088 85.3994 80.0297 86.2203L94.4398 100.625L84.4047 110.655C83.7921 111.267 83.3749 112.046 83.2058 112.896C83.0367 113.745 83.1234 114.625 83.4548 115.425C83.7862 116.225 84.3475 116.908 85.0676 117.389C85.7877 117.869 86.6342 118.126 87.5 118.125H113.75C114.91 118.125 116.023 117.664 116.844 116.844C117.664 116.023 118.125 114.91 118.125 113.75V87.5C118.125 86.6347 117.868 85.7889 117.387 85.0695C116.906 84.3502 116.223 83.7896 115.423 83.4586Z" fill="var(--fill-0, white)"/>
</g>
</svg>
