<svg preserveAspectRatio="none" width="100%" height="100%" overflow="visible" style="display: block;" viewBox="0 0 140 140" fill="none" xmlns="http://www.w3.org/2000/svg">
<g id="infinity-svgrepo-com 1">
<path id="Vector" d="M118.342 55.2016C115.698 50.9202 111.961 47.4205 107.515 45.0624C103.07 42.7043 98.0763 41.5731 93.0486 41.785C89.2522 42.018 85.5491 43.0579 82.1864 44.8353C78.8237 46.6127 75.8787 49.0868 73.5478 52.0924C73.962 52.7691 74.4111 53.4108 74.7845 54.1166L79.912 63.7533L80.6936 62.2716C81.8872 59.8064 83.7008 57.6936 85.9566 56.1403C88.2125 54.587 90.8332 53.6464 93.562 53.4108C95.7922 53.3271 98.0163 53.6941 100.101 54.4899C102.187 55.2856 104.09 56.4937 105.697 58.042C107.304 59.5902 108.583 61.4468 109.456 63.5005C110.33 65.5543 110.78 67.7632 110.78 69.9949C110.78 72.2267 110.33 74.4356 109.456 76.4894C108.583 78.5431 107.304 80.3997 105.697 81.9479C104.09 83.4962 102.187 84.7043 100.101 85.5C98.0163 86.2958 95.7922 86.6628 93.562 86.5791C90.8345 86.3442 88.2149 85.4045 85.96 83.8521C83.7051 82.2998 81.8923 80.1881 80.6995 77.7241L76.5928 70.0008L69.6336 56.8174C67.4863 52.5519 64.2641 48.9199 60.2848 46.2797C56.3055 43.6394 51.7067 42.0822 46.942 41.7616C43.137 41.6069 39.3399 42.2228 35.7789 43.5722C32.2178 44.9216 28.9662 46.9768 26.2193 49.6143C23.4724 52.2518 21.2868 55.4172 19.7938 58.9205C18.3008 62.4238 17.5312 66.1926 17.5312 70.0008C17.5312 73.8089 18.3008 77.5778 19.7938 81.0811C21.2868 84.5844 23.4724 87.7498 26.2193 90.3873C28.9662 93.0248 32.2178 95.08 35.7789 96.4294C39.3399 97.7788 43.137 98.3947 46.942 98.2399C50.7384 98.0069 54.4414 96.967 57.8042 95.1896C61.1669 93.4122 64.1119 90.9381 66.4428 87.9324C66.0286 87.2558 65.5795 86.6141 65.2061 85.9083L60.0786 76.2483L59.297 77.7299C58.1034 80.1951 56.2898 82.3079 54.034 83.8612C51.7781 85.4146 49.1574 86.3551 46.4286 86.5908C43.4538 86.7156 40.4999 86.0406 37.8745 84.6361C35.2491 83.2316 33.0482 81.1489 31.5011 78.6049C29.9202 76.0177 29.0837 73.0445 29.0837 70.0124C29.0837 66.9804 29.9202 64.0072 31.5011 61.4199C32.9893 58.9749 35.0811 56.9535 37.5757 55.5499C40.0702 54.1464 42.8838 53.4077 45.7461 53.4049H46.452C49.1794 53.6399 51.799 54.5796 54.0539 56.1319C56.3088 57.6843 58.1216 59.796 59.3145 62.2599L63.3978 70.0008L70.357 83.1841C72.5042 87.4496 75.7265 91.0817 79.7057 93.7219C83.685 96.3621 88.2839 97.9194 93.0486 98.2399H94.2678C99.2902 98.2349 104.221 96.8918 108.552 94.3488C112.883 91.8059 116.458 88.155 118.91 83.7717C121.362 79.3884 122.602 74.431 122.502 69.4096C122.402 64.3881 120.966 59.484 118.342 55.2016Z" fill="var(--fill-0, white)"/>
</g>
</svg>
