<svg preserveAspectRatio="none" width="100%" height="100%" overflow="visible" style="display: block;" viewBox="0 0 140 140" fill="none" xmlns="http://www.w3.org/2000/svg">
<g id="Frame">
<path id="Vector" d="M109.377 35V91.875C109.378 92.7408 109.122 93.5873 108.641 94.3074C108.161 95.0275 107.477 95.5888 106.677 95.9202C105.877 96.2516 104.997 96.3383 104.148 96.1692C103.299 96.0001 102.519 95.5829 101.907 94.9703L76.5649 69.6227L38.0977 108.095C37.2768 108.916 36.1634 109.377 35.0024 109.377C33.8415 109.377 32.728 108.916 31.9071 108.095C31.0862 107.274 30.625 106.161 30.625 105C30.625 103.839 31.0862 102.726 31.9071 101.905L70.3798 63.4375L45.0321 38.0953C44.4196 37.4834 44.0023 36.7036 43.8332 35.8545C43.6641 35.0053 43.7508 34.1251 44.0822 33.3253C44.4136 32.5254 44.9749 31.8419 45.695 31.3612C46.4151 30.8805 47.2616 30.6243 48.1274 30.625H105.002C106.163 30.625 107.276 31.0859 108.096 31.9064C108.917 32.7269 109.377 33.8397 109.377 35Z" fill="var(--fill-0, white)"/>
</g>
</svg>
