<svg preserveAspectRatio="none" width="100%" height="100%" overflow="visible" style="display: block;" viewBox="0 0 138.923 152.381" fill="none" xmlns="http://www.w3.org/2000/svg">
<g id="Layer_x0020_1">
<path id="Vector" fill-rule="evenodd" clip-rule="evenodd" d="M59.3867 0H79.5366V11.9906C95.2659 12.8862 105.142 14.4067 119.763 20.5475V7.31703L138.923 14.9625C138.923 24.4998 138.938 37.628 138.469 46.2784C117.04 36.4186 93.1866 30.4304 69.4141 30.4304C45.6811 30.4304 21.8588 36.384 0.44963 46.2179C-0.0145459 37.5863 5.11101e-05 24.4782 5.11101e-05 14.9625L19.1601 7.31703V20.5475C33.7809 14.4067 43.6575 12.8862 59.3867 11.9906V0ZM66.5353 152.24C44.2959 139.918 28.4978 125.645 16.1364 103.507H38.4153C41.1755 107.355 44.2622 110.904 47.283 114.024V93.9376C36.1399 93.3976 22.7827 93.8771 11.2896 93.9318C5.35639 80.8756 2.21843 67.6783 0.957693 53.4659C25.0626 42.2973 40.6689 39.4767 66.5353 37.6151C66.5353 47.4922 66.5353 57.3706 66.5353 67.2492H47.2874L47.2918 58.6176C38.6965 59.9077 30.0192 62.0616 21.9174 65.1759C22.7637 69.1786 23.8077 72.6096 24.7317 75.2574C38.3377 75.2574 52.4475 75.2574 66.5353 75.2574V152.24ZM91.4998 58.6176C100.094 59.9077 108.768 62.0616 116.87 65.1759C116.023 69.1786 114.979 72.6096 114.055 75.2574L134.141 75.2703C135.904 68.7451 137.1 61.8701 137.829 53.4659C113.725 42.2973 98.1197 39.4767 72.2518 37.6151C72.2518 76.0393 72 113.977 72 152.381C96.6221 141.37 117.122 117.029 127.843 93.1773H107.302C104.91 98.8271 96.3582 110.183 91.5027 114.024C91.5027 95.5559 91.5071 77.0803 91.4998 58.6176Z" fill="var(--fill-0, #767676)"/>
<path id="Vector_2" fill-rule="evenodd" clip-rule="evenodd" d="M59.3867 0H79.5366V11.9906C95.2659 12.8862 105.142 14.4067 119.763 20.5475V7.31703L138.923 14.9625C138.923 24.4998 138.938 37.628 138.469 46.2784C117.04 36.4186 93.1866 30.4304 69.4141 30.4304C45.6811 30.4304 21.8588 36.384 0.44963 46.2179C-0.0145459 37.5863 5.111e-05 24.4782 5.111e-05 14.9625L19.1601 7.31703V20.5475C33.7809 14.4067 43.6575 12.8862 59.3867 11.9906V0Z" fill="var(--fill-0, #CCCCCC)"/>
</g>
</svg>
