<svg preserveAspectRatio="none" width="100%" height="100%" overflow="visible" style="display: block;" viewBox="0 0 20 20" fill="none" xmlns="http://www.w3.org/2000/svg">
<g id="cross-svgrepo-com (2) 2">
<path id="Vector" d="M2.12527 2.12916C1.51033 2.7441 1.51033 3.74109 2.12527 4.35603L7.77053 10.0013L2.12527 15.6466C1.51033 16.2615 1.51033 17.2586 2.12527 17.8735C2.74019 18.4883 3.7372 18.4883 4.35212 17.8735L9.99737 12.2281L15.6427 17.8735C16.2576 18.4883 17.2547 18.4883 17.8696 17.8735C18.4845 17.2586 18.4845 16.2615 17.8696 15.6466L12.2242 10.0013L17.8696 4.35605C18.4845 3.74112 18.4845 2.74412 17.8696 2.12919C17.2545 1.51425 16.2576 1.51425 15.6427 2.12919L9.99737 7.77442L4.35212 2.12916C3.7372 1.51424 2.74019 1.51424 2.12527 2.12916Z" fill="var(--fill-0, #ACACAC)"/>
</g>
</svg>
