<?xml version="1.0" encoding="UTF-8"?>
<svg id="Layer_2" data-name="Layer 2" xmlns="http://www.w3.org/2000/svg" viewBox="0 0 936.33 185.96">
  <defs>
    <style>
      .cls-1 {
        fill: #fff;
      }
    </style>
  </defs>
  <g id="Layer_1-2" data-name="Layer 1">
    <g>
      <g>
        <path class="cls-1" d="M171.31,95.19h-21.28l-38.58-58.82c-2.27-3.44-3.83-6.03-4.7-7.77h-.26c.35,3.31,.52,8.35,.52,15.14v51.45h-19.91V1.56h22.72l37.15,57c1.7,2.57,3.27,5.12,4.7,7.65h.26c-.35-2.18-.52-6.46-.52-12.86V1.56h19.91V95.19Z"/>
        <path class="cls-1" d="M271.07,95.19h-56.15V1.56h53.99V18.73h-32.9v20.83h30.62v17.11h-30.62v21.42h35.06v17.11Z"/>
        <path class="cls-1" d="M364.43,95.19h-56.14V1.56h53.99V18.73h-32.9v20.83h30.62v17.11h-30.62v21.42h35.05v17.11Z"/>
        <path class="cls-1" d="M467.39,18.73h-26.7V95.19h-21.15V18.73h-26.58V1.56h74.43V18.73Z"/>
        <path class="cls-1" d="M580.75,95.19h-24.23l-14.55-24.09c-1.1-1.83-2.14-3.46-3.14-4.9-1-1.44-2.02-2.67-3.04-3.7-1.02-1.02-2.08-1.81-3.19-2.34-1.12-.55-2.31-.82-3.63-.82h-5.67v35.85h-21.09V1.56h33.44c22.72,0,34.08,8.5,34.08,25.47,0,3.26-.51,6.28-1.51,9.04-1,2.76-2.4,5.25-4.23,7.48-1.83,2.21-4.05,4.13-6.63,5.74-2.59,1.62-5.46,2.87-8.64,3.79v.26c1.38,.43,2.74,1.14,4.05,2.12,1.3,.98,2.57,2.13,3.78,3.43,1.23,1.3,2.38,2.71,3.5,4.22,1.12,1.49,2.12,2.97,3.02,4.4l17.71,27.68Zm-57.46-77.83v26.06h9.15c4.52,0,8.15-1.3,10.89-3.92,2.8-2.66,4.18-5.94,4.18-9.86,0-8.18-4.9-12.28-14.69-12.28h-9.53Z"/>
        <path class="cls-1" d="M640.61,1.56V17.89h-7.84v60.98h7.84v16.32h-36.76v-16.32h7.84V17.89h-7.84V1.56h36.76Z"/>
        <path class="cls-1" d="M760.49,95.19h-21.28l-38.6-58.82c-2.27-3.44-3.84-6.03-4.71-7.77h-.25c.34,3.31,.51,8.35,.51,15.14v51.45h-19.9V1.56h22.72l37.14,57c1.7,2.57,3.27,5.12,4.71,7.65h.26c-.36-2.18-.53-6.46-.53-12.86V1.56h19.92V95.19Z"/>
        <path class="cls-1" d="M843.66,96.83c-13.4,0-24.33-4.37-32.78-13.09-8.45-8.73-12.66-20.1-12.66-34.12,0-14.8,4.29-26.77,12.85-35.91,8.58-9.14,19.94-13.7,34.08-13.7,13.36,0,24.18,4.38,32.42,13.12,8.26,8.75,12.38,20.28,12.38,34.61s-4.27,26.57-12.83,35.58c-8.54,9.01-19.7,13.51-33.46,13.51Zm.91-78.68c-7.39,0-13.27,2.78-17.62,8.33-4.37,5.55-6.54,12.89-6.54,22.04s2.17,16.61,6.54,22c4.35,5.4,10.06,8.09,17.11,8.09s13.02-2.62,17.3-7.86c4.27-5.25,6.41-12.52,6.41-21.84s-2.08-17.26-6.22-22.65c-4.12-5.4-9.79-8.1-16.97-8.1Z"/>
      </g>
      <g>
        <path class="cls-1" d="M93.73,149.86v6.19h-2.97v23.11h2.97v6.19h-13.94v-6.19h2.97v-23.11h-2.97v-6.19h13.94Z"/>
        <path class="cls-1" d="M175.63,156.37h-10.12v28.98h-8.01v-28.98h-10.07v-6.51h28.21v6.51Z"/>
        <path class="cls-1" d="M323.62,184.08c-2.59,1.26-5.98,1.88-10.15,1.88-5.44,0-9.73-1.6-12.84-4.79-3.12-3.2-4.67-7.47-4.67-12.8,0-5.68,1.75-10.28,5.25-13.81,3.51-3.53,8.06-5.29,13.65-5.29,3.46,0,6.38,.43,8.77,1.3v7.7c-2.38-1.42-5.08-2.14-8.12-2.14-3.33,0-6.02,1.05-8.07,3.15-2.05,2.1-3.07,4.93-3.07,8.52s.96,6.16,2.9,8.2c1.93,2.03,4.53,3.05,7.79,3.05s5.98-.76,8.57-2.28v7.3Z"/>
        <path class="cls-1" d="M396.7,185.96c-5.08,0-9.22-1.65-12.43-4.96-3.2-3.3-4.79-7.61-4.79-12.93,0-5.6,1.62-10.14,4.87-13.61,3.25-3.46,7.55-5.19,12.92-5.19,5.07,0,9.16,1.65,12.29,4.97,3.12,3.32,4.69,7.68,4.69,13.12s-1.63,10.07-4.86,13.48c-3.25,3.42-7.48,5.12-12.68,5.12Zm.34-29.82c-2.8,0-5.03,1.06-6.67,3.16-1.66,2.11-2.48,4.89-2.48,8.35s.81,6.29,2.48,8.34c1.64,2.05,3.8,3.07,6.48,3.07s4.93-.99,6.55-2.99c1.62-1.98,2.43-4.74,2.43-8.27s-.78-6.54-2.35-8.59c-1.57-2.04-3.71-3.07-6.44-3.07Z"/>
        <path class="cls-1" d="M512.45,185.34h-7.9v-21.23c0-2.3,.11-4.83,.3-7.6h-.19c-.42,2.17-.79,3.74-1.12,4.7l-8.32,24.13h-6.54l-8.46-23.88c-.24-.64-.6-2.29-1.11-4.94h-.23c.21,3.5,.32,6.56,.32,9.21v19.62h-7.2v-35.49h11.7l7.26,21.04c.57,1.68,1,3.37,1.27,5.08h.13c.45-1.97,.93-3.68,1.42-5.12l7.26-20.99h11.4v35.49Z"/>
        <path class="cls-1" d="M580.41,173.12v12.22h-8v-35.49h12.53c8.94,0,13.4,3.77,13.4,11.31,0,3.56-1.27,6.45-3.84,8.65-2.57,2.2-5.99,3.31-10.28,3.31h-3.82Zm0-17.13v11.06h3.16c4.25,0,6.37-1.86,6.37-5.6s-2.12-5.46-6.37-5.46h-3.16Z"/>
        <path class="cls-1" d="M686.66,185.34h-8.71l-2.53-7.89h-12.61l-2.5,7.89h-8.68l12.93-35.49h9.47l12.63,35.49Zm-13.06-14.03l-3.82-11.93c-.28-.89-.47-1.95-.59-3.18h-.21c-.08,1.04-.28,2.07-.62,3.09l-3.86,12.02h9.09Z"/>
        <path class="cls-1" d="M774.89,185.34h-8.07l-14.61-22.29c-.87-1.3-1.46-2.29-1.8-2.95h-.09c.13,1.26,.21,3.18,.21,5.75v19.5h-7.56v-35.49h8.62l14.08,21.61c.64,.97,1.23,1.94,1.78,2.89h.09c-.13-.82-.19-2.45-.19-4.87v-19.63h7.54v35.49Z"/>
        <path class="cls-1" d="M861.65,149.86l-11.55,22.87v12.62h-8v-12.48l-11.27-23.01h9.13l5.73,13.24c.09,.25,.36,1.21,.81,2.9h.09c.21-1.19,.47-2.13,.77-2.8l5.8-13.34h8.47Z"/>
      </g>
      <path class="cls-1" d="M936.33,119.43v4.84H23.95c-1.12,5.52-6.02,9.68-11.86,9.68-6.66,0-12.09-5.43-12.09-12.1s5.43-12.1,12.09-12.1c5.84,0,10.73,4.16,11.86,9.68H936.33Z"/>
    </g>
  </g>
</svg>